<?xml version="1.0" encoding="UTF-8"?> <svg xmlns="http://www.w3.org/2000/svg" width="626" height="287" viewBox="0 0 626 287" fill="none"> <mask id="mask0_1262_9280" style="mask-type:alpha" maskUnits="userSpaceOnUse" x="0" y="0" width="626" height="287"> <rect width="626" height="287" fill="#C4C4C4"></rect> </mask> <g mask="url(#mask0_1262_9280)"> <path fill-rule="evenodd" clip-rule="evenodd" d="M436.908 225.076C474.123 213.696 496.693 171.658 524.951 137.874C555.716 101.092 601.633 76.4899 606.572 22.233C611.754 -34.6891 581.553 -86.8304 548.865 -124.819C518.169 -160.494 477.893 -174.263 436.908 -174.948C395.281 -175.643 349.34 -169.92 322.066 -128.609C295.762 -88.7683 310.875 -30.2189 306.725 22.233C301.642 86.4845 263.733 158.668 295.431 208.058C327.161 257.498 388.96 239.738 436.908 225.076Z" fill="#FFE129"></path> <path fill-rule="evenodd" clip-rule="evenodd" d="M188.587 -139.396C156.195 -134.726 148.13 -91.1585 124.37 -67.9406C99.1691 -43.3143 54.5599 -36.7028 47.574 -1.60062C40.1248 35.8297 59.8557 78.6733 91.1311 99.0776C119.79 117.775 154.781 92.9544 188.587 90.3974C217.72 88.1936 252.943 107.527 272.744 85.3401C292.518 63.1842 270.54 28.5348 270.693 -1.60064C270.848 -32.0636 289.091 -63.5175 273.634 -89.4599C255.864 -119.282 222.159 -144.236 188.587 -139.396Z" fill="#5DDA1E"></path> <path fill-rule="evenodd" clip-rule="evenodd" d="M228.775 191.921C203.422 220.465 162.373 231.569 124.089 227.625C89.2986 224.04 60.4054 200.449 38.9528 172.181C20.6051 148.004 14.0784 117.349 17.4786 87.0158C18.968 73.7295 24.4505 62.2155 31.7069 51.2451C36.5842 43.8714 42.1819 36.8512 47.879 29.7064C50.7126 26.1527 53.5707 22.5683 56.377 18.8942C61.6953 11.9312 66.5728 4.40569 71.3889 -3.03464L71.5023 -3.20979C76.2938 -10.6122 81.0271 -17.9246 86.1367 -24.642C96.4346 -38.1803 108.092 -49.0685 124.342 -53.1219C163.603 -62.9151 210.699 -56.5963 237.313 -26.8255C250.202 -12.4067 253.542 5.76593 253.38 25.5699C253.299 35.4699 252.344 45.7044 251.305 56.0183C251.203 57.0307 251.1 58.0439 250.997 59.0577C250.054 68.3443 249.108 77.6727 248.757 86.746C248.477 94.0099 248.472 101.405 248.467 108.768C248.465 110.946 248.463 113.121 248.455 115.288C248.417 124.812 248.242 134.228 247.343 143.332C245.546 161.536 240.868 178.306 228.775 191.921ZM123.718 231.212C162.818 235.241 205.152 223.955 231.481 194.312C244.29 179.891 249.107 162.251 250.94 143.685C251.857 134.403 252.031 124.844 252.07 115.303C252.078 113.108 252.08 110.915 252.082 108.727C252.087 101.376 252.092 94.0738 252.37 86.8847C252.715 77.9319 253.65 68.7192 254.594 59.4146C254.697 58.4037 254.799 57.3918 254.901 56.379C255.94 46.0713 256.912 35.6852 256.994 25.5994C257.159 5.4321 253.777 -13.8265 240.01 -29.2257C212.167 -60.372 163.455 -66.5955 123.465 -56.6204C106.042 -52.2744 93.7543 -40.6222 83.2571 -26.822C78.0642 -19.995 73.2679 -12.5852 68.5027 -5.22341L68.3522 -4.99093C63.5233 2.46916 58.7207 9.87571 53.5017 16.7086C50.7967 20.25 47.9921 23.7683 45.1836 27.2912C39.4262 34.5134 33.6529 41.7555 28.6897 49.2589C21.2588 60.4932 15.4623 72.5548 13.8862 86.615C10.402 117.697 17.0687 149.319 36.0707 174.358C57.7966 202.986 87.4914 227.479 123.718 231.212Z" fill="black"></path> <path fill-rule="evenodd" clip-rule="evenodd" d="M216.775 191.921C191.422 220.465 150.373 231.569 112.089 227.625C77.2986 224.04 48.4054 200.449 26.9528 172.181C8.60509 148.004 2.07836 117.349 5.4786 87.0158C6.96797 73.7295 12.4505 62.2155 19.7069 51.2451C24.5842 43.8714 30.1819 36.8512 35.879 29.7064C38.7126 26.1527 41.5707 22.5683 44.377 18.8942C49.6953 11.9312 54.5728 4.40569 59.3889 -3.03464L59.5023 -3.20979C64.2938 -10.6122 69.0271 -17.9246 74.1367 -24.642C84.4346 -38.1803 96.0917 -49.0685 112.342 -53.1219C151.603 -62.9151 198.699 -56.5963 225.313 -26.8255C238.202 -12.4067 241.542 5.76593 241.38 25.5699C241.299 35.4699 240.344 45.7044 239.305 56.0183C239.203 57.0307 239.1 58.0439 238.997 59.0577C238.054 68.3443 237.108 77.6727 236.757 86.746C236.477 94.0099 236.472 101.405 236.467 108.768C236.465 110.946 236.463 113.121 236.455 115.288C236.417 124.812 236.242 134.228 235.343 143.332C233.546 161.536 228.868 178.306 216.775 191.921ZM111.718 231.212C150.818 235.241 193.152 223.955 219.481 194.312C232.29 179.891 237.107 162.251 238.94 143.685C239.857 134.403 240.031 124.844 240.07 115.303C240.078 113.108 240.08 110.915 240.082 108.727C240.087 101.376 240.092 94.0738 240.37 86.8847C240.715 77.9319 241.65 68.7192 242.594 59.4146C242.697 58.4037 242.799 57.3918 242.901 56.379C243.94 46.0713 244.912 35.6852 244.994 25.5994C245.159 5.4321 241.777 -13.8265 228.01 -29.2257C200.167 -60.372 151.455 -66.5955 111.465 -56.6204C94.0419 -52.2744 81.7543 -40.6222 71.2571 -26.822C66.0642 -19.995 61.2679 -12.5852 56.5027 -5.22341L56.3522 -4.99093C51.5233 2.46916 46.7207 9.87571 41.5017 16.7086C38.7967 20.25 35.9921 23.7683 33.1836 27.2912C27.4262 34.5134 21.6529 41.7555 16.6897 49.2589C9.25878 60.4932 3.46229 72.5548 1.88618 86.615C-1.59799 117.697 5.06872 149.319 24.0707 174.358C45.7966 202.986 75.4914 227.479 111.718 231.212Z" fill="black"></path> <mask id="mask1_1262_9280" style="mask-type:alpha" maskUnits="userSpaceOnUse" x="123" y="20" width="261" height="267"> <path fill-rule="evenodd" clip-rule="evenodd" d="M246.628 285.011C283.909 286.612 325.447 293.925 352.847 264.805C380.788 235.11 389.632 185.138 380.593 142.637C372.788 105.938 337.06 91.6327 311.097 68.4878C290.408 50.0446 272.496 27.8111 246.628 23.2109C215.994 17.7631 182.264 18.3687 158.576 41.3644C133.488 65.7192 125.453 104.937 123.605 142.637C121.625 183.049 123.25 227.298 148.057 256.007C172.91 284.769 211.396 283.497 246.628 285.011Z" fill="#71D9F4"></path> </mask> <g mask="url(#mask1_1262_9280)"> <path fill-rule="evenodd" clip-rule="evenodd" d="M248.207 282.031C285.06 283.617 326.12 290.857 353.206 262.023C380.825 232.621 389.567 183.141 380.632 141.058C372.917 104.721 337.599 90.5561 311.935 67.639C291.484 49.3773 273.778 27.3627 248.207 22.8077C217.925 17.4135 184.583 18.0132 161.167 40.7825C136.367 64.8977 128.424 103.729 126.598 141.058C124.64 181.072 126.247 224.886 150.769 253.312C175.337 281.792 213.379 280.532 248.207 282.031Z" fill="#71D9F4"></path> <path fill-rule="evenodd" clip-rule="evenodd" d="M275.239 17.8397C255.241 31.9888 240.122 53.5979 233.864 80.3471C220.463 137.632 252.547 197.775 306.193 218.646C305.319 219.159 304.437 219.659 303.547 220.145C302.393 219.832 301.238 219.499 300.083 219.145C243.33 201.727 209.023 140.512 222.47 83.0316C229.425 53.3028 247.878 30.0243 271.927 16.8859C273.031 17.1848 274.135 17.5026 275.239 17.8397ZM279.402 15.0465C278.624 14.7824 277.841 14.5265 277.054 14.2789C277.665 13.9908 278.279 13.709 278.896 13.4335C279.675 13.5827 280.455 13.7412 281.235 13.9091C280.62 14.2816 280.009 14.6607 279.402 15.0465ZM266.493 15.5659C243.537 29.473 225.991 52.6418 219.122 82.004C205.15 141.728 240.621 204.56 298.42 222.752C297.81 223.04 297.196 223.322 296.579 223.597C292.842 222.882 289.092 221.953 285.341 220.801C228.587 203.384 194.28 142.169 207.727 84.6884C215.34 52.148 236.729 27.3357 264.153 15.0903C264.932 15.2395 265.712 15.398 266.493 15.5659ZM270.641 12.4697C270.943 12.5451 271.245 12.6219 271.547 12.7001C271.754 12.5905 271.961 12.4816 272.169 12.3734C271.853 12.3344 271.538 12.2968 271.223 12.2607C271.028 12.3298 270.834 12.3994 270.641 12.4697ZM241.085 9.36836C196.049 11.119 156.589 42.5012 145.41 90.2881C131.376 150.275 167.221 213.396 225.472 231.273C242.463 236.488 259.484 237.277 275.42 234.29C280.413 234.096 285.337 233.537 290.161 232.633C295.155 232.439 300.079 231.881 304.905 230.976C309.898 230.782 314.822 230.224 319.647 229.319C324.64 229.125 329.564 228.567 334.389 227.663C339.382 227.469 344.307 226.91 349.132 226.006C354.124 225.812 359.049 225.253 363.873 224.349C368.867 224.155 373.791 223.597 378.617 222.692C383.609 222.498 388.534 221.94 393.358 221.035C398.352 220.841 403.276 220.283 408.101 219.379C453.138 217.628 492.598 186.246 503.777 138.459C517.81 78.472 481.965 15.3507 423.715 -2.52647C406.724 -7.74115 389.703 -8.53017 373.767 -5.54292C368.774 -5.34885 363.85 -4.7906 359.025 -3.8862C354.032 -3.69216 349.107 -3.13385 344.282 -2.22932C339.289 -2.03523 334.365 -1.477 329.54 -0.572584C324.547 -0.378524 319.622 0.179769 314.797 1.08429C309.804 1.27837 304.88 1.83662 300.055 2.74102C295.062 2.93508 290.137 3.49336 285.312 4.3979C280.319 4.59199 275.395 5.15026 270.57 6.05475C265.577 6.24882 260.653 6.80709 255.828 7.71149C250.835 7.90554 245.91 8.46385 241.085 9.36836ZM215.744 17.7216C183.326 27.8762 157.323 54.7047 148.758 91.3157C135.311 148.796 169.618 210.011 226.371 227.429C233.55 229.632 240.723 231.022 247.805 231.654C245.277 231.072 242.745 230.393 240.214 229.617C181.964 211.739 146.119 148.618 160.152 88.6312C167.82 55.8542 188.793 30.795 215.744 17.7216ZM256.481 13.9175C225.696 24.8584 201.24 51.0578 192.985 86.3452C179.538 143.826 213.845 205.04 270.598 222.458C276.926 224.4 283.249 225.711 289.509 226.427C289.704 226.358 289.898 226.288 290.091 226.218C288.209 225.748 286.325 225.224 284.441 224.646C226.191 206.769 190.346 143.648 204.379 83.6608C211.804 51.9227 231.704 27.4209 257.426 14.0303C257.111 13.9912 256.796 13.9536 256.481 13.9175ZM303.306 224.657C303.513 224.549 303.721 224.44 303.928 224.331C304.23 224.409 304.532 224.486 304.834 224.561C304.64 224.631 304.446 224.701 304.252 224.77C303.936 224.734 303.621 224.697 303.306 224.657ZM308.982 221.465C309.597 221.093 310.208 220.713 310.815 220.328C311.593 220.592 312.376 220.848 313.163 221.095C312.552 221.383 311.938 221.665 311.321 221.941C310.542 221.791 309.762 221.633 308.982 221.465ZM310.402 216.026C256.303 196.858 224.118 137.346 237.212 81.3747C243.49 54.5381 259.139 32.9578 279.815 19.3481C281.178 19.831 282.527 20.3395 283.861 20.8728C266.913 34.9161 254.209 54.7435 248.606 78.6904C235.828 133.313 264.406 190.535 313.599 213.829C312.548 214.583 311.482 215.315 310.402 216.026ZM317.589 215.624C316.728 216.275 315.858 216.912 314.978 217.534C316.082 217.872 317.186 218.189 318.29 218.488C319.179 218.002 320.061 217.502 320.935 216.989C319.81 216.551 318.695 216.096 317.589 215.624ZM317.137 211.17C267.918 189.213 239.521 132.869 251.955 79.718C257.532 55.8793 270.502 36.1882 287.822 22.5471C289.388 23.2457 290.933 23.9791 292.456 24.7461C278.592 38.277 268.251 56.0779 263.349 77.0335C251.245 128.772 276.246 182.843 320.725 208.204C319.551 209.222 318.355 210.211 317.137 211.17ZM324.243 210.129C323.212 211.056 322.163 211.962 321.098 212.845C322.433 213.378 323.781 213.886 325.144 214.369C326.224 213.658 327.29 212.926 328.341 212.172C326.959 211.518 325.592 210.836 324.243 210.129ZM323.745 205.472C279.583 181.204 254.965 128.211 266.697 78.0611C271.54 57.361 281.957 39.7883 295.957 26.5884C297.699 27.546 299.411 28.5482 301.092 29.5933C290.299 42.139 282.244 57.6261 278.091 75.3768C266.721 123.981 288.096 174.643 327.602 201.629C326.349 202.948 325.063 204.229 323.745 205.472ZM330.76 203.711C329.616 204.943 328.444 206.145 327.245 207.314C328.768 208.081 330.313 208.815 331.879 209.513C333.097 208.554 334.293 207.565 335.467 206.547C333.873 205.638 332.304 204.692 330.76 203.711ZM330.205 198.779C291.306 172.735 270.463 123.325 281.44 76.4044C285.504 59.0289 293.497 43.8568 304.239 31.6249C306.147 32.902 308.011 34.2353 309.83 35.6218C302.042 46.6203 296.175 59.4374 292.834 73.7199C282.268 118.882 299.975 165.821 334.229 193.892C332.935 195.569 331.593 197.198 330.205 198.779ZM337.11 196.178C335.898 197.764 334.645 199.308 333.353 200.81C335.033 201.855 336.745 202.858 338.487 203.815C339.805 202.573 341.091 201.291 342.344 199.972C340.562 198.755 338.817 197.489 337.11 196.178ZM336.479 190.857C303.092 163.657 286.031 118.138 296.182 74.7475C299.41 60.9489 305.115 48.54 312.707 37.8896C346.094 65.0902 363.155 110.609 353.005 153.999C349.777 167.798 344.071 180.207 336.479 190.857ZM314.958 34.8553C349.212 62.926 366.918 109.865 356.353 155.027C353.012 169.309 347.144 182.127 339.357 193.125C341.176 194.512 343.04 195.845 344.947 197.122C355.689 184.89 363.682 169.718 367.747 152.343C378.724 105.421 357.88 56.012 318.982 29.968C317.594 31.5486 316.252 33.1782 314.958 34.8553ZM312.076 32.5688C310.37 31.2576 308.624 29.9921 306.842 28.7748C308.095 27.4557 309.381 26.1743 310.699 24.9317C312.442 25.8892 314.154 26.8914 315.834 27.9364C314.542 29.4387 313.288 30.9833 312.076 32.5688ZM303.684 26.6929C302.141 25.7115 300.571 24.7655 298.977 23.8564C300.151 22.8382 301.347 21.8493 302.565 20.8903C304.131 21.5889 305.676 22.3223 307.199 23.0894C306.001 24.2589 304.829 25.4603 303.684 26.6929ZM295.459 21.9319C294.109 21.2244 292.743 20.5429 291.36 19.8881C292.412 19.1344 293.478 18.402 294.558 17.6914C295.92 18.1742 297.269 18.6826 298.604 19.216C297.538 20.0986 296.49 21.0041 295.459 21.9319ZM287.371 18.0932C286.265 17.6213 285.149 17.1663 284.024 16.7285C284.898 16.215 285.78 15.7151 286.67 15.2291C287.773 15.5279 288.877 15.8458 289.981 16.1829C289.102 16.8053 288.231 17.4422 287.371 18.0932ZM291.797 12.622C292.583 12.8697 293.366 13.1256 294.145 13.3897C294.752 13.004 295.363 12.6248 295.978 12.2523C295.197 12.0844 294.417 11.9259 293.638 11.7767C293.021 12.0522 292.407 12.3339 291.797 12.622ZM286.289 11.0432C285.987 10.9651 285.685 10.8883 285.383 10.8129C285.577 10.7426 285.771 10.673 285.965 10.6039C286.28 10.64 286.596 10.6776 286.911 10.7166C286.703 10.8248 286.496 10.9336 286.289 11.0432ZM163.5 89.6588C172.065 53.0474 198.069 26.2187 230.487 16.0644C203.536 29.1377 182.562 54.1971 174.894 86.9744C160.861 146.961 196.706 210.083 254.957 227.96C257.487 228.737 260.019 229.415 262.548 229.998C255.466 229.365 248.292 227.975 241.113 225.772C184.36 208.354 150.053 147.139 163.5 89.6588ZM318.67 222.674C318.463 222.784 318.256 222.893 318.048 223.001C318.364 223.04 318.679 223.077 318.994 223.113C319.188 223.044 319.382 222.975 319.576 222.904C319.274 222.829 318.972 222.752 318.67 222.674ZM325.557 218.671C324.95 219.057 324.339 219.436 323.724 219.808C324.505 219.976 325.284 220.135 326.064 220.284C326.681 220.008 327.294 219.727 327.905 219.438C327.118 219.191 326.336 218.935 325.557 218.671ZM329.72 215.878C330.6 215.255 331.47 214.618 332.331 213.967C333.437 214.439 334.553 214.894 335.678 215.332C334.804 215.846 333.922 216.345 333.032 216.831C331.929 216.533 330.825 216.215 329.72 215.878ZM335.84 211.188C336.906 210.305 337.954 209.4 338.985 208.472C340.335 209.179 341.701 209.861 343.084 210.516C342.032 211.269 340.966 212.002 339.887 212.712C338.524 212.23 337.175 211.721 335.84 211.188ZM341.988 205.658C343.186 204.488 344.358 203.287 345.502 202.054C347.046 203.035 348.615 203.981 350.209 204.89C349.036 205.909 347.84 206.898 346.622 207.857C345.056 207.158 343.511 206.425 341.988 205.658ZM371.095 153.37C382.466 104.766 361.091 54.1038 321.585 27.118C322.837 25.7989 324.124 24.5175 325.442 23.2748C369.603 47.543 394.222 100.536 382.49 150.686C377.647 171.386 367.229 188.959 353.23 202.158C351.487 201.201 349.775 200.199 348.095 199.154C358.888 186.608 366.943 171.121 371.095 153.37ZM313.72 22.1997C315.314 23.1087 316.883 24.0547 318.426 25.036C319.571 23.8034 320.743 22.602 321.941 21.4325C320.418 20.6655 318.873 19.9321 317.307 19.2335C316.089 20.1926 314.893 21.1815 313.72 22.1997ZM306.103 18.2313C307.485 18.8861 308.852 19.5677 310.202 20.2752C311.232 19.3473 312.281 18.4418 313.346 17.5592C312.012 17.0259 310.663 16.5174 309.3 16.0345C308.22 16.7452 307.154 17.4776 306.103 18.2313ZM298.767 15.0718C299.892 15.5095 301.007 15.9645 302.113 16.4364C302.974 15.7853 303.844 15.1485 304.724 14.5261C303.62 14.189 302.516 13.8712 301.412 13.5723C300.523 14.0583 299.641 14.5582 298.767 15.0718ZM308.887 11.7329C308.109 11.4688 307.326 11.2129 306.539 10.9653C307.15 10.6772 307.764 10.3954 308.381 10.1199C309.16 10.2691 309.94 10.4276 310.72 10.5954C310.105 10.968 309.494 11.3471 308.887 11.7329ZM300.125 9.15607C300.428 9.23149 300.73 9.3083 301.032 9.38647C301.239 9.27687 301.446 9.16798 301.654 9.05983C301.338 9.02075 301.023 8.98317 300.708 8.9471C300.513 9.01614 300.319 9.0858 300.125 9.15607ZM245.228 14.408C212.811 24.5626 186.808 51.3911 178.243 88.002C164.796 145.482 199.103 206.697 255.856 224.115C263.035 226.318 270.208 227.709 277.29 228.341C274.762 227.758 272.23 227.08 269.699 226.303C211.448 208.426 175.603 145.304 189.637 85.3176C197.305 52.5407 218.277 27.4814 245.228 14.408ZM332.791 221.344C332.998 221.236 333.206 221.127 333.413 221.017C333.715 221.095 334.017 221.172 334.319 221.248C334.125 221.318 333.931 221.388 333.736 221.457C333.421 221.421 333.106 221.383 332.791 221.344ZM338.467 218.151C339.082 217.779 339.693 217.4 340.3 217.014C341.078 217.278 341.861 217.534 342.647 217.782C342.037 218.07 341.423 218.352 340.806 218.627C340.027 218.478 339.247 218.319 338.467 218.151ZM347.073 212.31C346.213 212.962 345.343 213.598 344.463 214.221C345.567 214.558 346.671 214.876 347.774 215.175C348.664 214.689 349.546 214.189 350.42 213.675C349.295 213.237 348.179 212.782 347.073 212.31ZM353.728 206.815C352.697 207.743 351.648 208.648 350.583 209.531C351.918 210.064 353.266 210.573 354.629 211.056C355.709 210.345 356.775 209.612 357.826 208.859C356.444 208.204 355.077 207.522 353.728 206.815ZM328.462 20.5428C372.941 45.9044 397.942 99.9747 385.838 151.713C380.935 172.669 370.595 190.47 356.73 204.001C358.253 204.768 359.798 205.501 361.364 206.2C378.685 192.559 391.655 172.868 397.232 149.029C409.666 95.8778 381.269 39.5337 332.05 17.5767C330.832 18.5357 329.636 19.5247 328.462 20.5428ZM324.944 18.6184C323.594 17.9108 322.228 17.2293 320.845 16.5745C321.897 15.8208 322.963 15.0884 324.042 14.3777C325.405 14.8606 326.754 15.369 328.088 15.9024C327.023 16.785 325.975 17.6905 324.944 18.6184ZM316.856 14.7797C315.75 14.3077 314.634 13.8527 313.509 13.4149C314.383 12.9013 315.265 12.4015 316.154 11.9155C317.258 12.2143 318.362 12.5322 319.466 12.8693C318.586 13.4917 317.716 14.1286 316.856 14.7797ZM321.281 9.30844C322.068 9.55611 322.851 9.81204 323.63 10.0761C324.237 9.69036 324.848 9.31121 325.463 8.93868C324.682 8.77078 323.902 8.61227 323.123 8.46307C322.506 8.73852 321.892 9.02033 321.281 9.30844ZM315.774 7.72963C315.472 7.65147 315.17 7.57469 314.868 7.4993C315.003 7.45024 315.139 7.40146 315.274 7.35301L315.45 7.29029C315.765 7.32635 316.081 7.36393 316.396 7.403C316.3 7.45301 316.204 7.50319 316.108 7.55351C315.997 7.61202 315.885 7.67073 315.774 7.72963ZM348.155 219.36C347.948 219.47 347.741 219.579 347.533 219.687C347.848 219.726 348.163 219.764 348.479 219.8L348.716 219.715L348.859 219.664L349.061 219.591C348.759 219.515 348.457 219.439 348.155 219.36ZM355.042 215.357C354.435 215.743 353.824 216.122 353.209 216.495C353.989 216.662 354.769 216.821 355.548 216.97C356.165 216.695 356.779 216.413 357.39 216.125C356.603 215.877 355.82 215.621 355.042 215.357ZM359.205 212.564C360.085 211.942 360.955 211.305 361.816 210.654C362.922 211.126 364.037 211.581 365.162 212.018C364.288 212.532 363.406 213.032 362.517 213.518C361.413 213.219 360.309 212.901 359.205 212.564ZM400.58 150.057C413.359 95.4337 384.78 38.212 335.587 14.9177C336.639 14.164 337.705 13.4316 338.785 12.7209C392.883 31.889 425.068 91.401 411.974 147.372C405.696 174.209 390.048 195.789 369.371 209.399C368.009 208.916 366.66 208.407 365.325 207.874C382.274 193.831 394.978 174.003 400.58 150.057ZM328.251 11.7582C329.376 12.1959 330.492 12.6509 331.598 13.1228C332.458 12.4717 333.329 11.8349 334.208 11.2125C333.104 10.8754 332 10.5575 330.897 10.2587C330.007 10.7447 329.125 11.2446 328.251 11.7582ZM338.372 8.41927C337.593 8.15521 336.811 7.89932 336.024 7.65167C336.635 7.36357 337.248 7.08175 337.865 6.80631C338.645 6.95547 339.424 7.11397 340.205 7.28184C339.59 7.65437 338.979 8.03353 338.372 8.41927ZM329.61 5.84245C329.912 5.91787 330.214 5.99467 330.517 6.07286C330.724 5.96326 330.931 5.85439 331.139 5.74624C330.823 5.70715 330.508 5.66955 330.192 5.63347L330.008 5.69918L329.927 5.7282L329.709 5.80676L329.61 5.84245ZM362.275 218.03C362.483 217.922 362.69 217.813 362.897 217.704C363.199 217.782 363.501 217.859 363.803 217.934C363.61 218.004 363.416 218.074 363.221 218.143C362.906 218.107 362.591 218.069 362.275 218.03ZM367.951 214.838C368.566 214.465 369.177 214.086 369.784 213.7C370.563 213.964 371.345 214.22 372.132 214.468C371.522 214.756 370.908 215.038 370.291 215.313C369.512 215.164 368.732 215.006 367.951 214.838ZM342.994 10.1014C396.639 30.9721 428.724 91.1151 415.322 148.4C409.065 175.149 393.946 196.758 373.948 210.907C375.052 211.244 376.156 211.562 377.259 211.861C401.309 198.723 419.762 175.444 426.717 145.715C440.164 88.2349 405.857 27.0201 349.103 9.60238C347.949 9.24792 346.794 8.9145 345.639 8.60186C344.75 9.08788 343.868 9.58779 342.994 10.1014ZM430.065 146.743C423.196 176.105 405.65 199.274 382.694 213.181C383.474 213.349 384.254 213.507 385.033 213.657C412.458 201.411 433.846 176.599 441.459 144.058C454.906 86.578 420.599 25.3633 363.846 7.94553C360.094 6.79418 356.344 5.86473 352.608 5.14948C351.991 5.42492 351.377 5.70674 350.766 5.99484C408.566 24.1871 444.037 87.0185 430.065 146.743ZM345.259 4.41603C344.957 4.33786 344.655 4.26108 344.353 4.18568C344.547 4.1154 344.741 4.04574 344.935 3.97668C345.25 4.01274 345.566 4.05032 345.881 4.08939C345.673 4.19755 345.466 4.30643 345.259 4.41603ZM377.963 216.486C377.648 216.45 377.333 216.413 377.018 216.373C377.225 216.265 377.433 216.156 377.64 216.047C377.942 216.125 378.244 216.202 378.546 216.277C378.461 216.308 378.377 216.338 378.292 216.369C378.183 216.408 378.073 216.447 377.963 216.486ZM391.76 214.717C392.075 214.756 392.391 214.793 392.706 214.829C423.491 203.888 447.946 177.689 456.202 142.402C469.648 84.9213 435.342 23.7065 378.588 6.28877C372.261 4.34689 365.938 3.03625 359.677 2.31988C359.577 2.35566 359.476 2.39161 359.375 2.42772C359.282 2.46129 359.189 2.495 359.095 2.52885C360.978 2.99902 362.862 3.52268 364.745 4.10072C422.996 21.9779 458.841 85.0992 444.807 145.086C437.382 176.824 417.483 201.326 391.76 214.717ZM470.944 140.745C462.379 177.356 436.376 204.184 403.958 214.339C430.909 201.265 451.882 176.206 459.55 143.429C473.583 83.4424 437.738 20.3211 379.488 2.44396C376.957 1.66717 374.425 0.988581 371.896 0.406055C378.978 1.03815 386.152 2.42877 393.331 4.63192C450.084 22.0497 484.391 83.2644 470.944 140.745ZM418.699 212.683C451.118 202.528 477.121 175.699 485.686 139.088C499.133 81.6077 464.827 20.3929 408.073 2.97516C400.895 0.772034 393.721 -0.61858 386.639 -1.25066C389.168 -0.66817 391.699 0.0103759 394.23 0.787115C452.48 18.6643 488.325 81.7856 474.292 141.772C466.624 174.55 445.651 199.609 418.699 212.683ZM500.429 137.431C491.864 174.042 465.86 200.871 433.443 211.025C460.394 197.952 481.367 172.893 489.035 140.116C503.068 80.1288 467.223 17.0075 408.973 -0.869649C406.442 -1.64642 403.91 -2.32501 401.381 -2.90752C408.463 -2.27543 415.637 -0.884798 422.815 1.31833C479.569 18.7361 513.876 79.9509 500.429 137.431Z" fill="black"></path> </g> <path fill-rule="evenodd" clip-rule="evenodd" d="M533.737 45.6348C553.733 49.1288 568.155 26.7897 580.922 11.087C592.013 -2.55347 599.742 -18.3107 599.993 -35.8531C600.248 -53.6653 593.575 -70.3214 582.284 -84.1485C569.457 -99.8581 554.08 -117.309 533.737 -116.996C513.517 -116.685 501.293 -96.5713 486.669 -82.6771C471.456 -68.2238 444.717 -56.4682 448.332 -35.8531C452.019 -14.8312 485.17 -17.71 500.651 -2.93897C515.402 11.135 513.607 42.1174 533.737 45.6348Z" fill="black"></path> <path fill-rule="evenodd" clip-rule="evenodd" d="M342.035 237.69C368.115 267.111 410.342 278.556 449.724 274.49C485.513 270.795 515.235 246.48 537.303 217.344C556.177 192.424 562.891 160.827 559.393 129.562C557.861 115.868 552.221 104 544.756 92.6929C539.739 85.0927 533.981 77.8569 528.12 70.4926C525.206 66.8298 522.265 63.1352 519.379 59.3483C513.908 52.1714 508.89 44.4147 503.936 36.7459L503.819 36.5653C498.89 28.9355 494.021 21.3985 488.765 14.4748C478.172 0.520611 466.18 -10.702 449.464 -14.8799C409.076 -24.9739 360.629 -18.4611 333.252 12.2242C319.993 27.0859 316.557 45.8168 316.724 66.2291C316.808 76.4331 317.789 86.982 318.859 97.6127C318.964 98.6562 319.069 99.7006 319.175 100.745C320.145 110.317 321.119 119.932 321.479 129.284C321.767 136.771 321.773 144.394 321.778 151.983C321.78 154.227 321.781 156.469 321.79 158.703C321.83 168.519 322.009 178.225 322.934 187.608C324.783 206.371 329.595 223.656 342.035 237.69ZM450.106 278.188C409.884 282.34 366.335 270.708 339.251 240.155C326.074 225.29 321.119 207.109 319.233 187.972C318.291 178.405 318.111 168.553 318.072 158.718C318.063 156.456 318.061 154.196 318.06 151.94C318.054 144.364 318.049 136.837 317.763 129.427C317.408 120.199 316.446 110.704 315.475 101.113C315.369 100.071 315.264 99.0284 315.159 97.9845C314.09 87.3602 313.091 76.655 313.006 66.2594C312.836 45.4727 316.316 25.6225 330.477 9.75026C359.119 -22.3527 409.228 -28.7674 450.366 -18.4859C468.289 -14.0064 480.929 -1.99623 491.727 12.2279C497.069 19.2646 502.003 26.9019 506.905 34.4899L507.06 34.7295C512.027 42.4187 516.968 50.0528 522.336 57.0955C525.119 60.7458 528.004 64.3721 530.893 68.0032C536.816 75.4472 542.755 82.9118 547.86 90.6457C555.504 102.225 561.467 114.657 563.088 129.149C566.673 161.186 559.815 193.779 540.267 219.587C517.918 249.095 487.372 274.34 450.106 278.188Z" fill="black"></path> <path fill-rule="evenodd" clip-rule="evenodd" d="M385.721 286.135C428.536 290.558 474.671 278.14 503.265 245.869C530.82 214.771 524.277 169.536 525.878 127.96C527.585 83.6154 542.204 33.6521 512.707 0.57784C482.578 -33.2069 429.569 -40.1628 385.721 -29.1993C348.46 -19.8827 332.729 20.8045 309.408 51.4093C290.93 75.6596 269.361 97.627 265.968 127.96C262.159 162.02 269.459 196.56 290.124 223.855C314.014 255.41 346.429 282.077 385.721 286.135Z" fill="#F7296A"></path> <path d="M337.176 19.0243C337.176 -0.401124 321.609 -16.1486 302.407 -16.1486C283.205 -16.1486 267.639 -0.401124 267.639 19.0243C267.639 38.4498 283.205 54.1973 302.407 54.1973C321.609 54.1973 337.176 38.4498 337.176 19.0243Z" fill="#FFE129"></path> <path fill-rule="evenodd" clip-rule="evenodd" d="M342.027 19.0243C342.027 -3.02746 324.341 -21 302.407 -21C280.472 -21 262.787 -3.02746 262.787 19.0243C262.787 41.0762 280.472 59.0487 302.407 59.0487C324.341 59.0487 342.027 41.0762 342.027 19.0243ZM302.407 -16.1486C321.609 -16.1486 337.175 -0.401117 337.175 19.0243C337.175 38.4498 321.609 54.1973 302.407 54.1973C283.205 54.1973 267.638 38.4498 267.638 19.0243C267.638 -0.401117 283.205 -16.1486 302.407 -16.1486Z" fill="black"></path> <ellipse rx="11.0995" ry="11.1431" transform="matrix(1 0 0 -1 301.663 34.3874)" fill="white"></ellipse> <ellipse rx="3.69984" ry="3.71438" transform="matrix(1 0 0 -1 301.665 39.3398)" fill="black"></ellipse> <path fill-rule="evenodd" clip-rule="evenodd" d="M471.802 266.067H454.822L454.884 250.299H439.117L439.183 233.32H454.95L455.012 217.553H471.992L471.93 233.32H487.698L487.631 250.299H471.864L471.802 266.067Z" fill="#FFE129"></path> <path fill-rule="evenodd" clip-rule="evenodd" d="M390.808 71.5707L396.951 71.7013C401.468 71.7973 404.527 74.9286 405.559 78.2425C406.587 81.5419 405.862 85.7486 402.431 88.4607L397.331 92.4923L399.21 98.9689C400.399 103.065 398.736 106.96 395.878 109.125C392.984 111.317 388.62 111.876 384.985 109.239L379.995 105.618L375.004 109.239C371.37 111.876 367.005 111.317 364.112 109.125C361.254 106.96 359.591 103.065 360.78 98.9689L362.659 92.4923L357.559 88.4607C354.128 85.7486 353.402 81.5419 354.431 78.2425C355.463 74.9286 358.522 71.7973 363.039 71.7013L369.182 71.5707L371.251 65.3657C374.08 56.8781 385.91 56.8781 388.739 65.3657L390.808 71.5707ZM378.317 104.4L378.32 104.402C378.319 104.401 378.318 104.401 378.317 104.4ZM383.047 67.2632C382.041 64.2456 377.949 64.2456 376.943 67.2632L374.275 75.2648C373.831 76.596 372.64 77.4986 371.289 77.5273L363.166 77.6999C360.103 77.765 358.838 81.8238 361.28 83.7539L367.754 88.8717C368.831 89.7231 369.286 91.1836 368.894 92.5325L366.542 100.641C365.655 103.699 368.966 106.207 371.481 104.382L378.149 99.5438C379.259 98.7388 380.731 98.7388 381.841 99.5438L388.509 104.382C391.024 106.207 394.335 103.699 393.448 100.641L391.095 92.5325C390.704 91.1836 391.159 89.7232 392.236 88.8717L398.71 83.7539C401.152 81.8238 399.887 77.765 396.824 77.6999L388.701 77.5273C387.35 77.4986 386.158 76.596 385.715 75.2648L383.047 67.2632Z" fill="black"></path> <path fill-rule="evenodd" clip-rule="evenodd" d="M525.538 12.8744C521.965 12.8744 519.069 15.7705 519.069 19.343C519.069 22.9155 521.965 25.8116 525.538 25.8116C529.11 25.8116 532.006 22.9155 532.006 19.343C532.006 15.7705 529.11 12.8744 525.538 12.8744ZM519.069 45.2173C519.069 41.6448 521.965 38.7487 525.538 38.7487C529.11 38.7487 532.006 41.6448 532.006 45.2173C532.006 48.7897 529.11 51.6858 525.538 51.6858C521.965 51.6858 519.069 48.7897 519.069 45.2173ZM525.538 64.6231C521.965 64.6231 519.069 67.5191 519.069 71.0916C519.069 74.6641 521.965 77.5602 525.538 77.5602C529.11 77.5602 532.006 74.6641 532.006 71.0916C532.006 67.5191 529.11 64.6231 525.538 64.6231ZM519.069 96.966C519.069 93.3935 521.965 90.4974 525.538 90.4974C529.11 90.4974 532.006 93.3935 532.006 96.966C532.006 100.539 529.11 103.435 525.538 103.435C521.965 103.435 519.069 100.539 519.069 96.966ZM525.538 116.372C521.965 116.372 519.069 119.268 519.069 122.84C519.069 126.413 521.965 129.309 525.538 129.309C529.11 129.309 532.006 126.413 532.006 122.84C532.006 119.268 529.11 116.372 525.538 116.372ZM519.069 148.715C519.069 145.142 521.965 142.246 525.538 142.246C529.11 142.246 532.006 145.142 532.006 148.715C532.006 152.287 529.11 155.183 525.538 155.183C521.965 155.183 519.069 152.287 519.069 148.715ZM519.069 174.589C519.069 171.016 521.965 168.12 525.538 168.12C529.11 168.12 532.006 171.016 532.006 174.589C532.006 178.161 529.11 181.057 525.538 181.057C521.965 181.057 519.069 178.161 519.069 174.589ZM519.069 -6.53139C519.069 -10.1039 521.965 -13 525.538 -13C529.11 -13 532.006 -10.1039 532.006 -6.53139C532.006 -2.95889 529.11 -0.062805 525.538 -0.0628049C521.965 -0.0628047 519.069 -2.95889 519.069 -6.53139ZM504.515 168.12C500.943 168.12 498.047 171.016 498.047 174.589C498.047 178.161 500.943 181.057 504.515 181.057C508.088 181.057 510.984 178.161 510.984 174.589C510.984 171.016 508.088 168.12 504.515 168.12ZM498.047 148.715C498.047 145.142 500.943 142.246 504.515 142.246C508.088 142.246 510.984 145.142 510.984 148.715C510.984 152.287 508.088 155.183 504.515 155.183C500.943 155.183 498.047 152.287 498.047 148.715ZM504.515 116.372C500.943 116.372 498.047 119.268 498.047 122.84C498.047 126.413 500.943 129.309 504.515 129.309C508.088 129.309 510.984 126.413 510.984 122.84C510.984 119.268 508.088 116.372 504.515 116.372ZM498.047 96.966C498.047 93.3935 500.943 90.4974 504.515 90.4974C508.088 90.4974 510.984 93.3935 510.984 96.966C510.984 100.539 508.088 103.435 504.515 103.435C500.943 103.435 498.047 100.539 498.047 96.966ZM504.515 64.6231C500.943 64.6231 498.047 67.5191 498.047 71.0916C498.047 74.6641 500.943 77.5602 504.515 77.5602C508.088 77.5602 510.984 74.6641 510.984 71.0916C510.984 67.5191 508.088 64.6231 504.515 64.6231ZM498.047 45.2174C498.047 41.6449 500.943 38.7488 504.515 38.7488C508.088 38.7488 510.984 41.6449 510.984 45.2174C510.984 48.7899 508.088 51.686 504.515 51.686C500.943 51.686 498.047 48.7899 498.047 45.2174ZM504.515 12.8744C500.943 12.8744 498.047 15.7705 498.047 19.343C498.047 22.9155 500.943 25.8116 504.515 25.8116C508.088 25.8116 510.984 22.9155 510.984 19.343C510.984 15.7705 508.088 12.8744 504.515 12.8744ZM498.047 -6.53139C498.047 -10.1039 500.943 -13 504.515 -13C508.088 -13 510.984 -10.1039 510.984 -6.53139C510.984 -2.95889 508.088 -0.0628041 504.515 -0.062804C500.943 -0.0628038 498.047 -2.95889 498.047 -6.53139ZM483.491 168.12C479.919 168.12 477.023 171.016 477.023 174.589C477.023 178.161 479.919 181.057 483.491 181.057C487.064 181.057 489.96 178.161 489.96 174.589C489.96 171.016 487.064 168.12 483.491 168.12ZM477.023 148.715C477.023 145.142 479.919 142.246 483.491 142.246C487.064 142.246 489.96 145.142 489.96 148.715C489.96 152.287 487.064 155.183 483.491 155.183C479.919 155.183 477.023 152.287 477.023 148.715ZM483.491 116.372C479.919 116.372 477.023 119.268 477.023 122.84C477.023 126.413 479.919 129.309 483.491 129.309C487.064 129.309 489.96 126.413 489.96 122.84C489.96 119.268 487.064 116.372 483.491 116.372ZM477.023 96.966C477.023 93.3935 479.919 90.4974 483.491 90.4974C487.064 90.4974 489.96 93.3935 489.96 96.966C489.96 100.539 487.064 103.435 483.491 103.435C479.919 103.435 477.023 100.539 477.023 96.966ZM483.491 64.6231C479.919 64.6231 477.023 67.5191 477.023 71.0916C477.023 74.6641 479.919 77.5602 483.491 77.5602C487.064 77.5602 489.96 74.6641 489.96 71.0916C489.96 67.5191 487.064 64.6231 483.491 64.6231ZM477.023 45.2174C477.023 41.6449 479.919 38.7488 483.491 38.7488C487.064 38.7488 489.96 41.6449 489.96 45.2174C489.96 48.7899 487.064 51.686 483.491 51.686C479.919 51.686 477.023 48.7899 477.023 45.2174ZM483.491 12.8744C479.919 12.8744 477.023 15.7705 477.023 19.343C477.023 22.9155 479.919 25.8116 483.491 25.8116C487.064 25.8116 489.96 22.9155 489.96 19.343C489.96 15.7705 487.064 12.8744 483.491 12.8744ZM477.023 -6.53138C477.023 -10.1039 479.919 -13 483.491 -13C487.064 -13 489.96 -10.1039 489.96 -6.53139C489.96 -2.95889 487.064 -0.0628032 483.491 -0.0628031C479.919 -0.0628029 477.023 -2.95889 477.023 -6.53138ZM462.469 168.12C458.896 168.12 456 171.017 456 174.589C456 178.162 458.896 181.058 462.469 181.058C466.041 181.058 468.937 178.162 468.937 174.589C468.937 171.017 466.041 168.12 462.469 168.12ZM456 148.715C456 145.142 458.896 142.246 462.469 142.246C466.041 142.246 468.937 145.142 468.937 148.715C468.937 152.287 466.041 155.183 462.469 155.183C458.896 155.183 456 152.287 456 148.715ZM462.469 116.372C458.896 116.372 456 119.268 456 122.84C456 126.413 458.896 129.309 462.469 129.309C466.041 129.309 468.937 126.413 468.937 122.84C468.937 119.268 466.041 116.372 462.469 116.372ZM456 96.966C456 93.3935 458.896 90.4974 462.469 90.4974C466.041 90.4974 468.937 93.3935 468.937 96.966C468.937 100.539 466.041 103.435 462.469 103.435C458.896 103.435 456 100.539 456 96.966ZM462.469 64.6231C458.896 64.6231 456 67.5191 456 71.0916C456 74.6641 458.896 77.5602 462.469 77.5602C466.041 77.5602 468.937 74.6641 468.937 71.0916C468.937 67.5191 466.041 64.6231 462.469 64.6231ZM456 45.2174C456 41.6449 458.896 38.7488 462.469 38.7488C466.041 38.7488 468.937 41.6449 468.937 45.2174C468.937 48.7899 466.041 51.686 462.469 51.686C458.896 51.686 456 48.7899 456 45.2174ZM462.469 12.8744C458.896 12.8744 456 15.7705 456 19.343C456 22.9155 458.896 25.8116 462.469 25.8116C466.041 25.8116 468.937 22.9155 468.937 19.343C468.937 15.7705 466.041 12.8744 462.469 12.8744ZM456 -6.53138C456 -10.1039 458.896 -13 462.469 -13C466.041 -13 468.937 -10.1039 468.937 -6.53138C468.937 -2.95889 466.041 -0.0628023 462.469 -0.0628021C458.896 -0.062802 456 -2.95889 456 -6.53138Z" fill="black"></path> <path d="M376.948 67.2632C377.954 64.2456 382.046 64.2456 383.052 67.2632L385.72 75.2648C386.163 76.596 387.355 77.4986 388.706 77.5273L396.829 77.6999C399.892 77.765 401.157 81.8238 398.715 83.7539L392.241 88.8717C391.164 89.7232 390.709 91.1836 391.1 92.5325L393.453 100.641C394.34 103.699 391.029 106.207 388.514 104.382L381.846 99.5438C380.736 98.7388 379.264 98.7388 378.154 99.5438L371.486 104.382C368.971 106.207 365.66 103.699 366.547 100.641L368.9 92.5325C369.291 91.1836 368.836 89.7231 367.759 88.8717L361.285 83.7539C358.843 81.8238 360.108 77.765 363.171 77.6999L371.294 77.5273C372.645 77.4986 373.837 76.596 374.28 75.2648L376.948 67.2632Z" fill="white"></path> <path fill-rule="evenodd" clip-rule="evenodd" d="M169.414 146.398H152.434L152.496 130.631H136.729L136.796 113.651H152.563L152.625 97.8842H169.605L169.543 113.651H185.31L185.243 130.631H169.476L169.414 146.398Z" fill="#FFE129"></path> <path fill-rule="evenodd" clip-rule="evenodd" d="M530.538 8.94034C526.965 8.94034 524.069 11.8364 524.069 15.4089C524.069 18.9814 526.965 21.8775 530.538 21.8775C534.11 21.8775 537.006 18.9814 537.006 15.4089C537.006 11.8364 534.11 8.94034 530.538 8.94034ZM524.069 41.2832C524.069 37.7107 526.965 34.8146 530.538 34.8146C534.11 34.8146 537.006 37.7107 537.006 41.2832C537.006 44.8557 534.11 47.7518 530.538 47.7518C526.965 47.7518 524.069 44.8557 524.069 41.2832ZM530.538 60.689C526.965 60.689 524.069 63.5851 524.069 67.1576C524.069 70.7301 526.965 73.6261 530.538 73.6261C534.11 73.6261 537.006 70.7301 537.006 67.1576C537.006 63.5851 534.11 60.689 530.538 60.689ZM524.069 93.0319C524.069 89.4594 526.965 86.5634 530.538 86.5634C534.11 86.5634 537.006 89.4594 537.006 93.0319C537.006 96.6044 534.11 99.5005 530.538 99.5005C526.965 99.5005 524.069 96.6044 524.069 93.0319ZM530.538 112.438C526.965 112.438 524.069 115.334 524.069 118.906C524.069 122.479 526.965 125.375 530.538 125.375C534.11 125.375 537.006 122.479 537.006 118.906C537.006 115.334 534.11 112.438 530.538 112.438ZM524.069 144.781C524.069 141.208 526.965 138.312 530.538 138.312C534.11 138.312 537.006 141.208 537.006 144.781C537.006 148.353 534.11 151.249 530.538 151.249C526.965 151.249 524.069 148.353 524.069 144.781ZM524.069 170.655C524.069 167.082 526.965 164.186 530.538 164.186C534.11 164.186 537.006 167.082 537.006 170.655C537.006 174.227 534.11 177.123 530.538 177.123C526.965 177.123 524.069 174.227 524.069 170.655ZM524.069 -10.4655C524.069 -14.038 526.965 -16.9341 530.538 -16.9341C534.11 -16.9341 537.006 -14.038 537.006 -10.4655C537.006 -6.89297 534.11 -3.99689 530.538 -3.99689C526.965 -3.99689 524.069 -6.89297 524.069 -10.4655ZM509.515 164.186C505.943 164.186 503.047 167.082 503.047 170.655C503.047 174.227 505.943 177.123 509.515 177.123C513.088 177.123 515.984 174.227 515.984 170.655C515.984 167.082 513.088 164.186 509.515 164.186ZM503.047 144.781C503.047 141.208 505.943 138.312 509.515 138.312C513.088 138.312 515.984 141.208 515.984 144.781C515.984 148.353 513.088 151.249 509.515 151.249C505.943 151.249 503.047 148.353 503.047 144.781ZM509.515 112.438C505.943 112.438 503.047 115.334 503.047 118.906C503.047 122.479 505.943 125.375 509.515 125.375C513.088 125.375 515.984 122.479 515.984 118.906C515.984 115.334 513.088 112.438 509.515 112.438ZM503.047 93.0319C503.047 89.4594 505.943 86.5634 509.515 86.5634C513.088 86.5634 515.984 89.4594 515.984 93.0319C515.984 96.6044 513.088 99.5005 509.515 99.5005C505.943 99.5005 503.047 96.6044 503.047 93.0319ZM509.515 60.689C505.943 60.689 503.047 63.5851 503.047 67.1576C503.047 70.7301 505.943 73.6261 509.515 73.6261C513.088 73.6261 515.984 70.7301 515.984 67.1576C515.984 63.5851 513.088 60.689 509.515 60.689ZM503.047 41.2833C503.047 37.7108 505.943 34.8147 509.515 34.8147C513.088 34.8147 515.984 37.7108 515.984 41.2833C515.984 44.8558 513.088 47.7519 509.515 47.7519C505.943 47.7519 503.047 44.8558 503.047 41.2833ZM509.515 8.94034C505.943 8.94034 503.047 11.8364 503.047 15.4089C503.047 18.9814 505.943 21.8775 509.515 21.8775C513.088 21.8775 515.984 18.9814 515.984 15.4089C515.984 11.8364 513.088 8.94034 509.515 8.94034ZM503.047 -10.4655C503.047 -14.038 505.943 -16.9341 509.515 -16.9341C513.088 -16.9341 515.984 -14.038 515.984 -10.4655C515.984 -6.89297 513.088 -3.99689 509.515 -3.99689C505.943 -3.99689 503.047 -6.89297 503.047 -10.4655ZM488.491 164.186C484.919 164.186 482.023 167.082 482.023 170.655C482.023 174.227 484.919 177.123 488.491 177.123C492.064 177.123 494.96 174.227 494.96 170.655C494.96 167.082 492.064 164.186 488.491 164.186ZM482.023 144.781C482.023 141.208 484.919 138.312 488.491 138.312C492.064 138.312 494.96 141.208 494.96 144.781C494.96 148.353 492.064 151.249 488.491 151.249C484.919 151.249 482.023 148.353 482.023 144.781ZM488.491 112.438C484.919 112.438 482.023 115.334 482.023 118.906C482.023 122.479 484.919 125.375 488.491 125.375C492.064 125.375 494.96 122.479 494.96 118.906C494.96 115.334 492.064 112.438 488.491 112.438ZM482.023 93.0319C482.023 89.4594 484.919 86.5634 488.491 86.5634C492.064 86.5634 494.96 89.4594 494.96 93.0319C494.96 96.6044 492.064 99.5005 488.491 99.5005C484.919 99.5005 482.023 96.6044 482.023 93.0319ZM488.491 60.689C484.919 60.689 482.023 63.5851 482.023 67.1576C482.023 70.7301 484.919 73.6261 488.491 73.6261C492.064 73.6261 494.96 70.7301 494.96 67.1576C494.96 63.5851 492.064 60.689 488.491 60.689ZM482.023 41.2833C482.023 37.7108 484.919 34.8147 488.491 34.8147C492.064 34.8147 494.96 37.7108 494.96 41.2833C494.96 44.8558 492.064 47.7519 488.491 47.7519C484.919 47.7519 482.023 44.8558 482.023 41.2833ZM488.491 8.94032C484.919 8.94033 482.023 11.8364 482.023 15.4089C482.023 18.9814 484.919 21.8775 488.491 21.8775C492.064 21.8775 494.96 18.9814 494.96 15.4089C494.96 11.8364 492.064 8.94032 488.491 8.94032ZM482.023 -10.4655C482.023 -14.038 484.919 -16.934 488.491 -16.934C492.064 -16.934 494.96 -14.038 494.96 -10.4655C494.96 -6.89297 492.064 -3.99689 488.491 -3.99689C484.919 -3.99688 482.023 -6.89297 482.023 -10.4655ZM467.469 164.186C463.896 164.186 461 167.082 461 170.655C461 174.227 463.896 177.124 467.469 177.124C471.041 177.124 473.937 174.227 473.937 170.655C473.937 167.082 471.041 164.186 467.469 164.186ZM461 144.781C461 141.208 463.896 138.312 467.469 138.312C471.041 138.312 473.937 141.208 473.937 144.781C473.937 148.353 471.041 151.249 467.469 151.249C463.896 151.249 461 148.353 461 144.781ZM467.469 112.438C463.896 112.438 461 115.334 461 118.906C461 122.479 463.896 125.375 467.469 125.375C471.041 125.375 473.937 122.479 473.937 118.906C473.937 115.334 471.041 112.438 467.469 112.438ZM461 93.0319C461 89.4594 463.896 86.5634 467.469 86.5634C471.041 86.5634 473.937 89.4594 473.937 93.0319C473.937 96.6044 471.041 99.5005 467.469 99.5005C463.896 99.5005 461 96.6044 461 93.0319ZM467.469 60.689C463.896 60.689 461 63.5851 461 67.1576C461 70.7301 463.896 73.6261 467.469 73.6261C471.041 73.6261 473.937 70.7301 473.937 67.1576C473.937 63.5851 471.041 60.689 467.469 60.689ZM461 41.2833C461 37.7108 463.896 34.8147 467.469 34.8147C471.041 34.8147 473.937 37.7108 473.937 41.2833C473.937 44.8558 471.041 47.7519 467.469 47.7519C463.896 47.7519 461 44.8558 461 41.2833ZM467.469 8.94033C463.896 8.94033 461 11.8364 461 15.4089C461 18.9814 463.896 21.8775 467.469 21.8775C471.041 21.8775 473.937 18.9814 473.937 15.4089C473.937 11.8364 471.041 8.94033 467.469 8.94033ZM461 -10.4655C461 -14.038 463.896 -16.934 467.469 -16.934C471.041 -16.934 473.937 -14.038 473.937 -10.4655C473.937 -6.89297 471.041 -3.99688 467.469 -3.99688C463.896 -3.99688 461 -6.89297 461 -10.4655Z" fill="#EFF5F8"></path> <path fill-rule="evenodd" clip-rule="evenodd" d="M104.909 278.215C131.069 282.107 157.483 271.171 177.099 253.391C197.724 234.698 217.397 208.399 212.137 181.03C207.149 155.068 172.217 150.95 153.781 132.041C134.879 112.654 131.374 76.6288 104.909 71.0503C76.8997 65.1462 49.7052 85.1353 30.0087 105.952C10.8416 126.208 -3.72598 153.49 0.845598 181.03C5.03252 206.253 32.7147 217.257 51.3785 234.687C68.8543 251.008 81.2825 274.7 104.909 278.215Z" fill="#EFB0FF"></path> <path fill-rule="evenodd" clip-rule="evenodd" d="M449.952 270.918H476.635L476.697 255.151H492.464L492.568 228.468H476.801L476.863 212.701H450.18L450.118 228.468H434.351L434.246 255.151H450.014L449.952 270.918ZM454.884 250.3H439.117L439.184 233.32H454.951L455.013 217.553H471.993L471.931 233.32H487.698L487.631 250.3H471.864L471.802 266.067H454.822L454.884 250.3Z" fill="black"></path> <path fill-rule="evenodd" clip-rule="evenodd" d="M147.565 151.249H174.248L174.31 135.482H190.077L190.182 108.8H174.415L174.476 93.0326H147.794L147.732 108.8H131.964L131.86 135.482H147.627L147.565 151.249ZM152.497 130.631H136.73L136.797 113.651H152.564L152.626 97.884H169.606L169.544 113.651H185.311L185.245 130.631H169.477L169.416 146.398H152.435L152.497 130.631Z" fill="black"></path> <path fill-rule="evenodd" clip-rule="evenodd" d="M23.3941 204.333L-15.8311 165.05L-10.7881 160L28.437 199.283L23.3941 204.333ZM128.588 204.333L89.3634 165.05L94.4063 160L133.631 199.283L128.588 204.333ZM35.8749 165.05L75.1 204.333L80.143 199.283L40.9179 160L35.8749 165.05ZM50.1386 204.333L10.9135 165.05L15.9564 160L55.1815 199.283L50.1386 204.333ZM62.6188 165.05L101.844 204.333L106.887 199.283L67.6618 160L62.6188 165.05ZM114.949 165.05L154.174 204.333L159.217 199.283L119.992 160L114.949 165.05ZM166.655 165.05L205.88 204.333L210.923 199.283L171.698 160L166.655 165.05ZM180.918 204.333L141.693 165.05L146.736 160L185.961 199.283L180.918 204.333ZM193.399 165.05L232.624 204.333L237.667 199.283L198.442 160L193.399 165.05Z" fill="#EFB0FF"></path> <path fill-rule="evenodd" clip-rule="evenodd" d="M20.2251 204.333L-19 165.05L-13.957 160L25.2681 199.283L20.2251 204.333ZM125.42 204.333L86.1944 165.05L91.2374 160L130.463 199.283L125.42 204.333ZM32.7059 165.05L71.931 204.333L76.974 199.283L37.7489 160L32.7059 165.05ZM46.9696 204.333L7.74453 165.05L12.7875 160L52.0126 199.283L46.9696 204.333ZM59.4499 165.05L98.675 204.333L103.718 199.283L64.4929 160L59.4499 165.05ZM111.78 165.05L151.005 204.333L156.048 199.283L116.823 160L111.78 165.05ZM163.486 165.05L202.711 204.333L207.754 199.283L168.529 160L163.486 165.05ZM177.749 204.333L138.524 165.05L143.567 160L182.792 199.283L177.749 204.333ZM190.23 165.05L229.455 204.333L234.498 199.283L195.273 160L190.23 165.05Z" fill="white"></path> </g> <path fill-rule="evenodd" clip-rule="evenodd" d="M282.25 140C257.811 140 238 159.811 238 184.25V287H265V184.25C265 174.723 272.723 167 282.25 167C291.777 167 299.5 174.723 299.5 184.25V287H326.5V184.25C326.5 174.723 334.223 167 343.75 167C353.277 167 361 174.723 361 184.25V287H388V184.25C388 159.811 368.189 140 343.75 140C331.803 140 320.961 144.735 313 152.43C305.039 144.735 294.197 140 282.25 140Z" fill="#EFF5F8"></path> </svg> 